<svg width="834" height="112" viewBox="0 0 834 112" fill="none" xmlns="http://www.w3.org/2000/svg">
<mask id="mask0_693_25" style="mask-type:luminance" maskUnits="userSpaceOnUse" x="0" y="0" width="834" height="112">
<path d="M833.8 0H0V111.1H833.8V0Z" fill="white"/>
</mask>
<g mask="url(#mask0_693_25)">
<path d="M55 111C85.4 111 110 86.1 110 55.5C110 24.8 85.4 0 55 0C24.6 0 0 24.9 0 55.5C0 86.2 24.6 111 55 111Z" fill="#D2FF94"/>
<path d="M146.699 63.4001C146.699 40.4001 164.199 23.3 186.799 23.3C204.399 23.3 218.599 33.4001 224.199 48.6001L209.799 54.1001C206.399 44.5001 197.699 38.5001 187.399 38.5001C173.799 38.5001 163.399 49 163.399 63.3C163.399 77.6 173.599 87.9001 187.399 87.9001C198.299 87.9001 207.099 81.2001 209.699 71.0001L224.699 75.6001C220.199 92.2001 205.499 103.5 186.799 103.5C164.199 103.5 146.699 86.6001 146.699 63.4001Z" fill="#F9F6F0"/>
<path d="M270.2 24.1001V40.2001H269.3C258 40.2001 246.7 44.4001 246.7 66.4001V101.9H230.6V24.9001H245.9V36.3001C250.4 28.4001 258.7 24.1001 269.5 24.1001H270.2Z" fill="#F9F6F0"/>
<path d="M348.299 68.3H285.099C287.199 80.1 296.899 88.3 309.599 88.3C317.899 88.3 324.899 84.8 329.799 78.3L342.499 87.5001C334.199 98.1001 321.999 103.5 309.199 103.5C286.099 103.5 268.699 86.0001 268.699 63.4001C268.699 40.9001 285.699 23.3 308.599 23.3C331.499 23.3 348.499 40.2001 348.499 63.2001C348.699 65.0001 348.599 66.3 348.299 68.3ZM332.299 54.1001C329.099 43.9001 320.199 38.1001 309.099 38.1001C297.999 38.1001 289.399 44.3001 286.099 54.1001H332.299Z" fill="#F9F6F0"/>
<path d="M415.499 24.8999H431.099V101.9H415.499V91.8999C410.199 98.9999 401.199 103.4 390.499 103.4C368.699 103.4 351.699 86.4999 351.699 63.2999C351.699 40.0999 368.699 23.2 390.499 23.2C400.699 23.2 409.699 27.2999 415.499 34.5999V24.8999ZM415.899 63.2C415.899 48.9 405.699 38.3999 391.999 38.3999C378.399 38.3999 368.299 48.9 368.299 63.2C368.299 77.5 378.499 88.0999 391.999 88.0999C405.499 87.9999 415.899 77.6 415.899 63.2Z" fill="#F9F6F0"/>
<path d="M473.599 87.5001V101.9H470.099C455.799 101.9 445.799 97.3001 445.799 79.2001V45.2001H437.899V30.8001H445.799V16.7001L461.899 12.1001V30.8001H472.899V45.2001H461.899L461.799 79.0001C461.799 86.6001 464.999 87.5001 472.599 87.5001H473.599Z" fill="#F9F6F0"/>
<path d="M475.8 63.4001C475.8 40.4001 493 23.3 515.9 23.3C538.8 23.3 556.1 40.3001 556.1 63.4001C556.1 86.4001 538.7 103.5 515.9 103.5C493.1 103.5 475.8 86.6001 475.8 63.4001ZM539.8 63.4001C539.8 48.7001 529.6 38.5001 515.9 38.5001C502.3 38.5001 492 48.8001 492 63.4001C492 77.9001 502.2 88.2001 515.9 88.2001C529.5 88.2001 539.8 77.8001 539.8 63.4001Z" fill="#F9F6F0"/>
<path d="M603.299 24.1001V40.2001H602.399C591.099 40.2001 579.799 44.4001 579.799 66.4001V101.9H563.699V24.9001H578.999V36.3001C583.499 28.4001 591.799 24.1001 602.599 24.1001H603.299Z" fill="#F9F6F0"/>
<path d="M679.5 101.9H658.4L629.2 64.9999V101.9H613V10.2H629.2V58.2999L657.2 24.8999H677.6L645.8 61.2L679.5 101.9Z" fill="#F9F6F0"/>
<path d="M680.199 17.3C680.199 11.9 684.599 7.30005 690.299 7.30005C695.999 7.30005 700.399 11.9 700.399 17.3C700.399 22.9 695.899 27.4001 690.299 27.4001C684.799 27.4001 680.199 23 680.199 17.3ZM682.099 101.9V35.1001H698.599V101.9H682.099Z" fill="#F9F6F0"/>
<path d="M795.5 24.9001H811.3L794.2 89.2001C792 97.6001 788.5 102.8 781.2 102.8C773.9 102.8 770.3 97.6001 768.2 88.9001L756.7 44.6001L745.2 88.9001C743.3 97.5001 739.6 102.8 732.4 102.8C725.1 102.8 721.6 97.6001 719.4 89.2001L702.3 24.9001H718.8L733.2 85.1001L746.2 33.8001C747.5 28.6001 751 24.1001 757.2 24.1001C763.4 24.1001 767.2 28.6001 768.4 33.9001L781 85.4001L795.5 24.9001Z" fill="#F9F6F0"/>
<path d="M813.6 17.3C813.6 11.9 818 7.30005 823.7 7.30005C829.4 7.30005 833.8 11.9 833.8 17.3C833.8 22.9 829.3 27.4001 823.7 27.4001C818.1 27.4001 813.6 23 813.6 17.3ZM815.4 101.9V35.1001H831.9V101.9H815.4Z" fill="#F9F6F0"/>
<path d="M36.6998 53.6001C36.6998 48.5001 32.5998 44.3 27.4998 44.3C22.3998 44.3 18.2998 48.4001 18.2998 53.6001V57.3C18.2998 62.4 22.3998 66.6001 27.4998 66.6001C32.5998 66.6001 36.6998 62.5 36.6998 57.3V53.6001Z" fill="#2C3A3A"/>
<path d="M64.1998 53.6001C64.1998 48.5001 60.0998 44.3 54.9998 44.3C49.8998 44.3 45.7998 48.4001 45.7998 53.6001V57.3C45.7998 62.4 49.8998 66.6001 54.9998 66.6001C60.0998 66.6001 64.1998 62.5 64.1998 57.3V53.6001Z" fill="#2C3A3A"/>
<path d="M16.0996 94.7999C37.5996 116.5 72.3996 116.5 93.8996 94.7999C115.4 73.0999 115.4 37.8999 93.8996 16.2999C72.3996 -5.4001 37.5996 -5.4001 16.0996 16.2999C-5.40039 37.8999 -5.40039 73.0999 16.0996 94.7999ZM54.9996 7.39991C81.2996 7.39991 102.7 28.8999 102.7 55.4999H91.6996C91.6996 66.3999 87.5996 77.2999 79.2996 85.6999C62.7996 102.3 36.0996 102.3 19.6996 85.6999C11.9996 77.8999 7.8996 67.7999 7.3996 57.5999C7.3996 57.2999 7.3996 56.8999 7.3996 56.5999C7.3996 56.1999 7.3996 55.8999 7.3996 55.4999C7.2996 28.8999 28.6996 7.39991 54.9996 7.39991Z" fill="#2C3A3A"/>
</g>
</svg>
