<svg width="221" height="223" viewBox="0 0 221 223" fill="none" xmlns="http://www.w3.org/2000/svg">
<path d="M73.55 107.725C73.55 97.425 65.35 89.125 55.15 89.125C45.05 89.125 36.75 97.425 36.75 107.725V115.125C36.75 125.325 44.95 133.725 55.15 133.725C65.25 133.725 73.55 125.425 73.55 115.125V107.725Z" fill="#949494"/>
<path d="M128.65 107.725C128.65 97.425 120.45 89.125 110.25 89.125C100.15 89.125 91.8496 97.425 91.8496 107.725V115.125C91.8496 125.325 100.05 133.725 110.25 133.725C120.35 133.725 128.65 125.425 128.65 115.125V107.725Z" fill="#949494"/>
<path d="M32.25 190.125C75.25 233.625 145.05 233.625 188.05 190.125C231.05 146.625 231.05 76.125 188.05 32.625C145.05 -10.875 75.25 -10.875 32.25 32.625C-10.75 76.225 -10.75 146.725 32.25 190.125ZM110.15 14.925C162.85 14.925 205.65 58.125 205.65 111.425H183.65C183.65 133.325 175.45 155.225 158.95 171.925C125.95 205.225 72.4501 205.225 39.55 171.925C24.05 156.325 15.85 136.125 14.95 115.625C14.95 114.925 14.85 114.325 14.85 113.625C14.85 112.925 14.85 112.225 14.85 111.425C14.65 58.125 57.45 14.925 110.15 14.925Z" fill="#949494"/>
</svg>
